<?xml version="1.0" encoding="UTF-8"?>
<svg id="Logo" xmlns="http://www.w3.org/2000/svg" xmlns:xlink="http://www.w3.org/1999/xlink" viewBox="0 0 1000 1000">
  <defs>
    <linearGradient id="Unbenannter_Verlauf_277" data-name="Unbenannter Verlauf 277" x1="288.25" y1="203.06" x2="855.19" y2="203.06" gradientUnits="userSpaceOnUse">
      <stop offset="0" stop-color="#0093bb"/>
      <stop offset=".12" stop-color="#0096bb"/>
      <stop offset=".25" stop-color="#00a2bc"/>
      <stop offset=".37" stop-color="#00b6bd"/>
      <stop offset=".49" stop-color="#00d3bf"/>
      <stop offset=".61" stop-color="#00f6c1"/>
      <stop offset=".64" stop-color="#00ffc2"/>
    </linearGradient>
    <linearGradient id="Unbenannter_Verlauf_277-2" data-name="Unbenannter Verlauf 277" x1="288.25" y1="394.34" x2="732.5" y2="394.34" xlink:href="#Unbenannter_Verlauf_277"/>
    <linearGradient id="Unbenannter_Verlauf_277-3" data-name="Unbenannter Verlauf 277" x1="288.25" y1="656.83" x2="438.88" y2="656.83" xlink:href="#Unbenannter_Verlauf_277"/>
    <linearGradient id="Unbenannter_Verlauf_277-4" data-name="Unbenannter Verlauf 277" x1="211.73" y1="560.22" x2="273.79" y2="560.22" xlink:href="#Unbenannter_Verlauf_277"/>
    <linearGradient id="Unbenannter_Verlauf_277-5" data-name="Unbenannter Verlauf 277" x1="726.51" y1="418.31" x2="800.2" y2="418.31" xlink:href="#Unbenannter_Verlauf_277"/>
    <linearGradient id="Unbenannter_Verlauf_277-6" data-name="Unbenannter Verlauf 277" x1="483.06" y1="560.22" x2="556.75" y2="560.22" xlink:href="#Unbenannter_Verlauf_277"/>
  </defs>
  <g>
    <g>
      <path d="M288.25,374.76l.71-136.09s2.82-92.38,106.48-111.41c103.66-19.04,266.55-54.3,266.55-54.3l193.21-41.6-35.26,106.48s-11.99,37.37-47.25,48.66c-35.26,11.28-352.58,76.86-352.58,76.86l1.41,40.9s-72.63,23.98-133.27,70.52Z" style="fill: url(#Unbenannter_Verlauf_277);"/>
      <path d="M288.96,396.62s55-67.69,229.17-107.18c174.17-39.49,214.37-45.83,214.37-45.83l-20.45,79.68s-19.74,50.77-56.41,64.17c-36.67,13.4-220.71,67.69-217.19,66.28,3.53-1.41,3.53,85.32,3.53,85.32,0,0-19.04,7.76-128.34,5.64,0,0,.71-28.91-25.39-42.31l.71-105.77Z" style="fill: url(#Unbenannter_Verlauf_277-2);"/>
      <path d="M288.25,603.94s50.07,9.87,149.49,2.82c0,0,23.98,7.05-148.08,102.95l-1.41-105.77Z" style="fill: url(#Unbenannter_Verlauf_277-3);"/>
    </g>
    <g>
      <path d="M293.16,560.22s247.9,23.27,419.95-105.07l23.98,20.45s-155.37,138.3-451.77,111.99l7.84-27.37Z"/>
      <path d="M182.49,548.58s-1.06-15.87,13.75-31.73c0,0-74.04-47.6,53.94-159.72,0,0-181.93,127.99-67.69,191.45Z"/>
      <path d="M819.24,398.39l-15.87-25.03s47.19-59.35-60.29-86.03c0,0,156.54-1.06,76.16,111.06Z"/>
      <circle cx="764.59" cy="421.66" r="62.05"/>
      <circle cx="519.9" cy="560.22" r="62.05"/>
      <circle cx="242.76" cy="560.22" r="50.4"/>
    </g>
    <circle cx="242.76" cy="560.22" r="31.03" style="fill: url(#Unbenannter_Verlauf_277-4);"/>
    <circle cx="763.36" cy="418.31" r="36.84" style="fill: url(#Unbenannter_Verlauf_277-5);"/>
    <circle cx="519.9" cy="560.22" r="36.84" style="fill: url(#Unbenannter_Verlauf_277-6);"/>
  </g>
  <text transform="translate(93.36 898.86)" style="font-family: Molgan-Regular, Molgan; font-size: 160px;"><tspan x="0" y="0" style="letter-spacing: -.06em;">F</tspan><tspan x="100.16" y="0" style="letter-spacing: .01em;">A</tspan><tspan x="223.2" y="0" style="letter-spacing: .02em;">CT</tspan><tspan x="445.44" y="0" style="letter-spacing: .06em;">ORA</tspan></text>
</svg>